#tb 0: 100/2397
#media_type 0: video
#codec_id 0: rawvideo
#dimensions 0: 320x240
#sar 0: 0/1
0,          0,          0,        1,   307200, 0xe36c2c38
0,          1,          1,        1,   307200, 0xa2e3476b
0,          2,          2,        1,   307200, 0x65167c95
0,          3,          3,        1,   307200, 0x6acd02ac
0,          4,          4,        1,   307200, 0x37935e0b
0,          5,          5,        1,   307200, 0x8e6918bc
0,          6,          6,        1,   307200, 0x0a246578
0,          7,          7,        1,   307200, 0x9c1a2f4c
